# xmcd
#
# Track frame offsets:
#	150
#	16080
#	36082
#	55647
#	93645
#
# Disc length: 4106 seconds
#
# Revision: 1
# Processed by: cddbd v1.5.2PL0 Copyright (c) Steve Scherf et al.
# Submitted via: audiograbber 1.83.01
#
DISCID=31100805
DTITLE=Autere - Seizure
DYEAR=2008
DGENRE=Death Metal
TTITLE0=Ruptured Blank
TTITLE1=Logic Invoice
TTITLE2=King In Submission
TTITLE3=Sore
TTITLE4=Daten-CD
EXTD=
EXTT0=
EXTT1=
EXTT2=
EXTT3=
EXTT4=
PLAYORDER=
